:version 1.10
:name ASF
:units
  mass 1
  length 1
  angle deg
:documentation
  ASF file generated by Kaydara
:root
  axis xyz
  order  tx ty tz rx ry rz
  position 0 0 0
  orientation 0 0 0
:bonedata
  begin
    id 1
    name RightUpLegDummy
    direction -1 2.30186e-007 8.31532e-007
    length 4.46685
    axis 0 0 0 xyz
  end
  begin
    id 2
    name RightUpLeg
    direction -2.30187e-007 -1 1.24343e-010
    length 16.4045
    axis -3.49089 -0.000906625 0.000286804 xyz
    dof rx ry rz
  end
  begin
    id 3
    name RightLeg
    direction -2.30181e-007 -1 -4.17157e-009
    length 17.5097
    axis 3.68512 0.0193738 -0.131023 xyz
    dof rx ry rz
  end
  begin
    id 4
    name RightFoot
    direction 8.31421e-007 -4.51202e-011 1
    length 6.49508
    axis 4.81691e-005 -0.120479 -0.188788 xyz
    dof rx ry rz
  end
  begin
    id 5
    name RightToes
    direction 0.00124746 -0.014064 0.9999
    length 3.85082
    axis 0.000481921 0.542163 -0.142578 xyz
    dof rx ry rz
  end
  begin
    id 6
    name SpineDummy
    direction 0.0717043 0.9409 -0.331007
    length 10.0032
    axis 0 0 0 xyz
  end
  begin
    id 7
    name Spine
    direction 2.30186e-007 1 4.58806e-011
    length 9.84055
    axis -0.001389 0.000121418 2.40972e-006 xyz
    dof rx ry rz
  end
  begin
    id 8
    name Spine1
    direction 0 0 0
    length 0
    axis -0.001389 0.000121451 1.30017e-006 xyz
    dof rx ry rz
  end
  begin
    id 9
    name HEadDummy
    direction -0.00347485 0.950688 -0.310128
    length 8.00997
    axis -0.001389 0.000121451 1.30017e-006 xyz
  end
  begin
    id 10
    name HEad
    direction -0.0222688 0.980941 0.193023
    length 5.12695
    axis -0.001389 0.000121451 1.30017e-006 xyz
    dof rx ry rz
  end
  begin
    id 11
    name LeftShoulder1Dummy
    direction 0.988871 0.146793 -0.0242004
    length 3.5792
    axis -0.001389 0.000121451 1.30017e-006 xyz
  end
  begin
    id 12
    name LeftShoulder1
    direction 0.993832 0.108932 0.020779
    length 4.16823
    axis -0.001389 0.000121451 1.30017e-006 xyz
    dof rx ry rz
  end
  begin
    id 13
    name LeftArm
    direction 1 3.44807e-006 -8.31404e-007
    length 9.91437
    axis -23.1894 0.134784 0.967509 xyz
    dof rx ry rz
  end
  begin
    id 14
    name LeftForeArm
    direction 1 3.44842e-006 -8.31581e-007
    length 9.08575
    axis -9.91835 -0.06569 -0.177793 xyz
    dof rx ry rz
  end
  begin
    id 15
    name LeftHand
    direction 0.992938 -0.0411636 0.11126
    length 5.32135
    axis -0.00960232 -0.00340091 0.185173 xyz
    dof rx ry rz
  end
  begin
    id 16
    name RightShoulderDummy
    direction -0.988871 0.146793 -0.0241962
    length 3.5792
    axis -0.001389 0.000121451 1.30017e-006 xyz
  end
  begin
    id 17
    name RightShoulder
    direction -0.993832 0.108933 0.0207785
    length 4.16823
    axis 0.215806 0.000203643 -0.0068026 xyz
    dof rx ry rz
  end
  begin
    id 18
    name RightArm
    direction -1 3.90912e-006 8.31284e-007
    length 9.91437
    axis -23.2009 -0.134239 -0.964101 xyz
    dof rx ry rz
  end
  begin
    id 19
    name RightForeArm
    direction -1 3.90882e-006 8.31502e-007
    length 9.08575
    axis -9.92322 0.0658061 0.178867 xyz
    dof rx ry rz
  end
  begin
    id 20
    name RightHand
    direction -0.992843 -0.0414603 0.112003
    length 5.28593
    axis -0.00960638 0.00330671 -0.185228 xyz
    dof rx ry rz
  end
  begin
    id 21
    name LeftUpLegDummy
    direction 1 -2.30186e-007 -8.31532e-007
    length 4.46685
    axis 0 0 0 xyz
  end
  begin
    id 22
    name LeftUpLeg
    direction -2.30187e-007 -1 6.00931e-010
    length 16.4045
    axis -3.48766 0.00143442 -0.000524262 xyz
    dof rx ry rz
  end
  begin
    id 23
    name LeftLeg
    direction -2.30187e-007 -1 1.6669e-009
    length 17.5097
    axis 3.68178 -0.00654042 -0.000285133 xyz
    dof rx ry rz
  end
  begin
    id 24
    name LeftFoot
    direction 8.31532e-007 -4.54478e-011 1
    length 6.49508
    axis 1.87233e-006 4.66016e-005 -8.6538e-006 xyz
    dof rx ry rz
  end
  begin
    id 25
    name LeftToes
    direction 0.00818058 -0.00485161 0.999955
    length 3.85048
    axis 1.06247e-005 4.65869e-005 -8.65513e-006 xyz
    dof rx ry rz
  end
:hierarchy
  begin
    root RightUpLegDummy SpineDummy LeftUpLegDummy
    RightUpLegDummy RightUpLeg
    RightUpLeg RightLeg
    RightLeg RightFoot
    RightFoot RightToes
    SpineDummy Spine
    Spine Spine1
    Spine1 HEadDummy LeftShoulder1Dummy RightShoulderDummy
    HEadDummy HEad
    LeftShoulder1Dummy LeftShoulder1
    LeftShoulder1 LeftArm
    LeftArm LeftForeArm
    LeftForeArm LeftHand
    RightShoulderDummy RightShoulder
    RightShoulder RightArm
    RightArm RightForeArm
    RightForeArm RightHand
    LeftUpLegDummy LeftUpLeg
    LeftUpLeg LeftLeg
    LeftLeg LeftFoot
    LeftFoot LeftToes
  end

:SAMPLES-PER-SECOND 30
:FULLY-SPECIFIED
:DEGREES
17
root  -49.3331 27.598 40.3377 -145.521 51.7292 -169.343
RightUpLeg  -63.6015 -13.2747 -4.51582
RightLeg  78.1746 2.96223 10.2452
RightFoot  -16.2939 -0.429703 -2.6235
RightToes  -41.6863 -0.232092 -0.324448
Spine  15.7578 -4.33355 -5.29001
Spine1  28.3029 -11.4107 -3.4624
HEad  -26.0213 -18.126 38.4505
LeftShoulder1  0 -2.42657e-020 -4.95415e-022
LeftArm  -73.5407 -39.3251 -42.1332
LeftForeArm  4.30915 -46.1695 -10.5791
LeftHand  0.667609 -3.51687 -21.9031
RightShoulder  0 2.42657e-020 1.07489e-018
RightArm  -39.6389 12.7666 85.5253
RightForeArm  44.4321 23.9076 4.46146
RightHand  -0.392326 25.2015 -1.38525
LeftUpLeg  -57.5815 7.68626 26.5886
LeftLeg  65.0665 -2.13976 -3.92786
LeftFoot  -15.1242 -0.0546541 -0.411697
LeftToes  -45.4987 9.37529e-007 1.1992e-007
18
root  -48.5067 28.1104 40.6351 -145.735 53.5978 -169.449
RightUpLeg  -62.4766 -14.5952 -7.5738
RightLeg  70.1285 1.20304 2.58683
RightFoot  -14.3941 -0.0810747 -0.264494
RightToes  -31.6918 -0.155743 -0.263551
Spine  15.0693 -3.49647 -4.50193
Spine1  27.0538 -9.10322 -3.69866
HEad  -26.4325 -18.2275 37.3579
LeftShoulder1  0 -2.42657e-020 -4.95415e-022
LeftArm  -70.5517 -40.3212 -46.9208
LeftForeArm  10.8663 -52.2627 -13.1881
LeftHand  0.573067 -3.14714 -21.0505
RightShoulder  0 2.42657e-020 1.07489e-018
RightArm  -40.1748 12.1893 83.7518
RightForeArm  43.7596 24.648 4.62009
RightHand  -0.460546 25.2566 -1.68578
LeftUpLeg  -52.5742 8.61435 26.7791
LeftLeg  59.806 -2.10834 -3.14701
LeftFoot  -13.9875 -0.0747865 -0.609641
LeftToes  -45.8624 9.37529e-007 1.1992e-007
19
root  -47.5248 28.4471 41.0084 -146.657 55.3725 -170.146
RightUpLeg  -61.7003 -17.3992 -8.59437
RightLeg  62.4984 -2.35576 -3.98648
RightFoot  -11.7789 0.105292 1.39833
RightToes  -26.3426 -0.119564 -0.22576
Spine  14.4722 -2.89562 -3.77263
Spine1  25.8881 -7.22938 -4.00805
HEad  -26.0637 -18.4216 35.5324
LeftShoulder1  0 -2.42657e-020 -4.95415e-022
LeftArm  -66.0222 -40.4345 -52.9067
LeftForeArm  21.3009 -60.5881 -18.2961
LeftHand  0.603439 -3.86558 -18.1407
RightShoulder  0 2.42657e-020 1.07489e-018
RightArm  -39.7995 11.5622 82.0919
RightForeArm  42.6748 26.4283 5.0089
RightHand  -0.504589 25.6489 -1.84675
LeftUpLeg  -47.3842 9.13962 27.1372
LeftLeg  54.5402 -2.0074 -2.47309
LeftFoot  -12.7223 -0.0827611 -0.742376
LeftToes  -47.0603 9.37529e-007 1.1992e-007
20
root  -46.4716 28.5977 41.4128 -147.169 58.1727 -170.467
RightUpLeg  -62.5505 -20.7011 -7.15681
RightLeg  56.6904 -5.43354 -7.23061
RightFoot  -10.3329 0.153918 2.07988
RightToes  -24.8154 -0.109897 -0.214367
Spine  13.9045 -2.18038 -3.31905
Spine1  24.6562 -5.19892 -4.44284
HEad  -25.5288 -18.3742 33.4016
LeftShoulder1  0 -2.42657e-020 -4.95415e-022
LeftArm  -60.91 -40.1528 -57.9047
LeftForeArm  32.7117 -67.2397 -24.9983
LeftHand  0.561177 -4.31246 -15.2158
RightShoulder  0 2.42657e-020 1.07489e-018
RightArm  -39.0005 11.4447 80.7437
RightForeArm  41.5327 28.6177 5.50417
RightHand  -0.646984 25.4407 -2.49617
LeftUpLeg  -41.8297 10.6249 27.3724
LeftLeg  49.89 -1.61703 -1.69341
LeftFoot  -11.642 -0.0904078 -0.886803
LeftToes  -47.8472 9.37529e-007 1.1992e-007
21
root  -45.223 28.5916 41.9854 -148.255 60.531 -171.232
RightUpLeg  -63.9704 -23.2393 -4.29758
RightLeg  53.757 -7.1737 -8.53941
RightFoot  -10.4351 0.191693 2.47672
RightToes  -20.024 -0.0815924 -0.177015
Spine  13.6272 -1.88858 -2.94889
Spine1  23.9028 -4.20177 -4.71162
HEad  -24.4696 -18.1333 31.082
LeftShoulder1  0 -2.42657e-020 -4.95415e-022
LeftArm  -56.687 -39.7782 -61.0059
LeftForeArm  46.2849 -71.4522 -31.9409
LeftHand  0.611327 -5.3865 -13.3275
RightShoulder  0 2.42657e-020 1.07489e-018
RightArm  -37.7628 12.2698 80.2196
RightForeArm  40.5637 30.8762 6.03771
RightHand  -0.832959 25.3601 -3.33171
LeftUpLeg  -36.3076 12.4012 27.9365
LeftLeg  45.4302 -1.59012 -1.42508
LeftFoot  -9.73258 -0.0816009 -0.958446
LeftToes  -49.7228 9.37529e-007 1.1992e-007
22
root  -43.798 28.4367 42.6585 -150.055 62.4871 -172.311
RightUpLeg  -64.1879 -22.9652 -3.31167
RightLeg  54.3704 -2.47658 -3.08122
RightFoot  -3.57158 0.00576788 0.562657
RightToes  -28.5585 -0.134122 -0.241824
Spine  13.665 -1.88776 -2.52431
Spine1  23.7092 -3.92679 -4.70096
HEad  -23.0407 -17.4974 28.1966
LeftShoulder1  0 -2.42657e-020 -4.95415e-022
LeftArm  -52.1818 -39.4399 -63.1944
LeftForeArm  57.9653 -73.2665 -36.1969
LeftHand  0.574317 -6.25091 -10.8705
RightShoulder  0 2.42657e-020 1.07489e-018
RightArm  -36.4782 14.3896 80.4617
RightForeArm  39.9797 32.51 6.43988
RightHand  -1.03775 25.2802 -4.25605
LeftUpLeg  -30.5411 13.9769 29.2965
LeftLeg  41.1403 -2.67204 -2.05118
LeftFoot  -6.94989 -0.0560669 -0.9233
LeftToes  -53.1816 9.37529e-007 1.1992e-007
23
root  -42.2852 28.1739 43.4987 -151.565 63.3547 -173.26
RightUpLeg  -64.0877 -20.9365 -3.44935
RightLeg  58.0701 1.81309 2.45169
RightFoot  -1.52974 -0.00234171 0.202235
RightToes  -35.8821 -0.186451 -0.290699
Spine  13.762 -2.17352 -1.81734
Spine1  23.5947 -4.34233 -4.22319
HEad  -21.2027 -16.6051 25.0937
LeftShoulder1  0 -2.42657e-020 -4.95415e-022
LeftArm  -46.7558 -38.8636 -64.9539
LeftForeArm  63.3642 -72.4628 -34.1506
LeftHand  0.44699 -7.87699 -6.86145
RightShoulder  0 2.42657e-020 1.07489e-018
RightArm  -34.3149 16.6327 81.14
RightForeArm  38.2514 34.1039 6.84843
RightHand  -1.15588 24.9937 -4.84294
LeftUpLeg  -26.1278 14.5713 31.5884
LeftLeg  38.0854 -4.00454 -2.743
LeftFoot  -2.76987 -0.0286716 -1.1859
LeftToes  -57.2156 9.37529e-007 1.1992e-007
24
root  -40.7727 27.8571 44.3403 -153.19 63.9942 -174.618
RightUpLeg  -65.1158 -19.8495 -2.66734
RightLeg  63.7313 1.55496 2.58501
RightFoot  -5.23548 -0.0156705 0.034806
RightToes  -34.3859 -0.175259 -0.281264
Spine  14.1287 -2.62147 -1.05338
Spine1  23.9302 -5.18833 -3.77254
HEad  -19.0536 -14.901 21.6989
LeftShoulder1  0 -2.42657e-020 -4.95415e-022
LeftArm  -41.1991 -38.4837 -66.2673
LeftForeArm  64.6913 -68.1797 -26.2328
LeftHand  -0.0364752 -9.47327 0.0703115
RightShoulder  0 2.42657e-020 1.07489e-018
RightArm  -31.2995 20.0306 82.4286
RightForeArm  37.0928 34.6719 6.99838
RightHand  -1.33585 24.3514 -5.81699
LeftUpLeg  -23.0567 13.626 33.5221
LeftLeg  36.478 -3.47247 -2.23973
LeftFoot  2.25064 0.0347077 -1.76679
LeftToes  -61.1214 9.37529e-007 1.1992e-007
25
root  -39.281 27.4491 45.1316 -153.842 65.8422 -175.008
RightUpLeg  -65.8449 -18.5369 -1.29175
RightLeg  68.42 1.66476 3.37164
RightFoot  -10.5174 -0.0668364 -0.348631
RightToes  -32.027 -0.158126 -0.265805
Spine  15.0276 -3.06031 -0.347896
Spine1  25.0468 -6.45738 -3.00501
HEad  -15.759 -11.9068 16.7254
LeftShoulder1  0 -2.42657e-020 -4.95415e-022
LeftArm  -37.1252 -38.4524 -66.7654
LeftForeArm  62.5565 -58.7154 -16.8705
LeftHand  -1.14214 -11.5332 10.9101
RightShoulder  0 2.42657e-020 1.07489e-018
RightArm  -27.2777 25.5093 84.4524
RightForeArm  35.6364 33.7476 6.75892
RightHand  -1.37742 24.0868 -6.08127
LeftUpLeg  -20.5807 11.3179 34.6625
LeftLeg  37.4822 1.67164 1.1139
LeftFoot  7.15898 0.106549 -1.70316
LeftToes  -59.7355 9.37529e-007 1.1992e-007
26
root  -37.8535 26.9335 45.791 -153.586 68.5668 -174.293
RightUpLeg  -66.5656 -16.7229 0.258618
RightLeg  73.184 1.46979 3.71293
RightFoot  -14.643 -0.134063 -0.665873
RightToes  -32.2502 -0.159719 -0.267297
Spine  16.7797 -3.64096 0.129256
Spine1  27.1397 -8.43863 -1.79683
HEad  -10.7315 -7.83688 11.373
LeftShoulder1  0 -2.42657e-020 -4.95415e-022
LeftArm  -36.0148 -40.5686 -65.7575
LeftForeArm  64.6835 -45.4138 -10.2517
LeftHand  -1.67192 -12.4482 14.8789
RightShoulder  0 2.42657e-020 1.07489e-018
RightArm  -22.5194 32.542 87.9264
RightForeArm  33.5202 31.3485 6.15955
RightHand  -1.17763 23.8426 -5.20511
LeftUpLeg  -20.2102 6.40942 34.3066
LeftLeg  44.8748 9.64911 8.33955
LeftFoot  9.97161 0.0267475 -0.306609
LeftToes  -45.4491 9.37529e-007 1.1992e-007
27
root  -36.5602 26.4803 46.2323 -153.111 70.8116 -173.702
RightUpLeg  -66.5584 -15.2791 1.10914
RightLeg  76.6769 1.50468 4.62909
RightFoot  -18.6875 -0.257975 -1.19025
RightToes  -31.6346 -0.155337 -0.263165
Spine  18.7328 -4.2095 0.865621
Spine1  29.4005 -10.4346 -0.195186
HEad  -6.4039 -3.05142 6.37311
LeftShoulder1  0 -2.42657e-020 -4.95415e-022
LeftArm  -36.6393 -45.6536 -64.9246
LeftForeArm  63.0745 -30.9204 -6.00159
LeftHand  -0.906193 -13.3435 7.3692
RightShoulder  0 2.42657e-020 1.07489e-018
RightArm  -18.072 39.66 91.3925
RightForeArm  31.2303 28.0833 5.39188
RightHand  -0.933311 23.0395 -4.20808
LeftUpLeg  -23.2219 -0.750637 31.9456
LeftLeg  57.5241 9.16949 12.2926
LeftFoot  8.16775 0.0531898 -0.744974
LeftToes  -30.714 9.37529e-007 1.1992e-007
28
root  -35.3307 26.1902 46.5318 -151.531 73.177 -172.269
RightUpLeg  -66.0035 -13.7941 1.84757
RightLeg  78.8418 1.57275 5.57914
RightFoot  -21.8884 -0.418613 -1.78709
RightToes  -31.5755 -0.15492 -0.262766
Spine  20.1632 -4.20533 1.76574
Spine1  30.953 -10.8621 1.06688
HEad  -2.60993 1.24348 2.58886
LeftShoulder1  0 -2.42657e-020 -4.95415e-022
LeftArm  -37.0414 -51.2881 -64.8685
LeftForeArm  61.1109 -18.3448 -3.29842
LeftHand  0.228518 -13.4739 -2.30545
RightShoulder  0 2.42657e-020 1.07489e-018
RightArm  -15.4837 45.4525 94.1689
RightForeArm  29.0684 24.4127 4.58408
RightHand  -0.27709 22.867 -1.00027
LeftUpLeg  -27.2533 -5.87512 28.205
LeftLeg  69.9729 3.78399 8.53071
LeftFoot  1.87863 0.0422401 -2.57588
LeftToes  -29.2005 9.37529e-007 1.1992e-007
29
root  -34.1103 26.1628 46.7722 -148.275 76.3899 -169.243
RightUpLeg  -64.5024 -10.8476 2.02122
RightLeg  79.4312 1.56487 5.78381
RightFoot  -24.4681 -0.544686 -2.13417
RightToes  -34.3449 -0.174956 -0.281001
Spine  20.8843 -3.34684 2.23619
Spine1  31.804 -8.98921 1.34732
HEad  -0.873926 4.6793 -0.514905
LeftShoulder1  0 -2.42657e-020 -4.95415e-022
LeftArm  -34.5019 -54.6253 -67.4237
LeftForeArm  61.5477 -9.64255 -1.66905
LeftHand  1.62594 -12.3698 -15.2983
RightShoulder  0 2.42657e-020 1.07489e-018
RightArm  -16.2498 49.387 96.1505
RightForeArm  29.3689 20.6726 3.80839
RightHand  0.110657 22.3146 0.931323
LeftUpLeg  -31.7332 -6.28341 22.7921
LeftLeg  81.3242 2.29984 10.3485
LeftFoot  -3.3801 -0.0943389 -3.19651
LeftToes  -25.001 9.37529e-007 1.1992e-007
30
root  -32.9078 26.4549 46.9093 -147.444 79.6087 -169.232
RightUpLeg  -62.6585 -8.21637 1.21201
RightLeg  78.2911 1.72446 5.92076
RightFoot  -26.007 -0.638567 -2.38718
RightToes  -34.5723 -0.17664 -0.282455
Spine  20.4734 -2.18921 2.22903
Spine1  31.3033 -6.15852 1.15418
HEad  -0.341246 6.42658 -2.81686
LeftShoulder1  0 -2.42657e-020 -4.95415e-022
LeftArm  -31.1961 -53.467 -73.9701
LeftForeArm  64.2878 -5.64134 -0.948372
LeftHand  1.59329 -10.2522 -18.0038
RightShoulder  0 2.42657e-020 1.07489e-018
RightArm  -21.6585 50.3698 95.9775
RightForeArm  31.4376 18.6873 3.41188
RightHand  0.19676 21.6355 1.40011
LeftUpLeg  -37.766 -4.33084 15.6869
LeftLeg  89.1715 1.2988 15.948
LeftFoot  -10.0779 -0.418482 -4.74343
LeftToes  -17.0061 9.37529e-007 1.1992e-007
31
root  -31.5925 27.0339 47.0153 -148.635 81.4133 -171.241
RightUpLeg  -59.4095 -6.5474 0.516622
RightLeg  75.3877 1.97898 5.71379
RightFoot  -27.1541 -0.688179 -2.47155
RightToes  -34.4706 -0.175886 -0.281806
Spine  19.6655 -1.21363 2.39583
Spine1  30.3737 -3.5828 1.52969
HEad  0.309261 6.36284 -4.23878
LeftShoulder1  0 -2.42657e-020 -4.95415e-022
LeftArm  -27.9914 -48.3936 -81.0192
LeftForeArm  66.6463 -6.84056 -1.15535
LeftHand  1.13096 -9.41388 -14.0511
RightShoulder  0 2.42657e-020 1.07489e-018
RightArm  -28.9797 49.2545 92.7735
RightForeArm  29.2676 18.3766 3.3522
RightHand  0.33135 21.6087 2.10678
LeftUpLeg  -44.76 -3.30984 9.24017
LeftLeg  92.3004 0.389558 15.4718
LeftFoot  -14.2778 -0.624336 -4.9818
LeftToes  -13.5424 9.37529e-007 1.1992e-007
